<?xml version="1.0" encoding="UTF-8"?>
<svg version="1.1" xmlns="http://www.w3.org/2000/svg" width="360" height="360">
<path d="M0 0 C1.30348389 0.01087646 1.30348389 0.01087646 2.63330078 0.02197266 C19.05753634 0.2297852 35.13318753 4.04952844 50 11 C51.38495121 11.59656816 52.7718315 12.18866913 54.16015625 12.77734375 C69.30019179 19.24470987 83.10439858 26.67989141 96 37 C96.86496094 37.66128906 97.72992188 38.32257812 98.62109375 39.00390625 C131.72648662 64.92744569 153.65836192 101.4169723 163.0546875 142.16015625 C163.5903026 145.76282726 163.5903026 145.76282726 165 147 C166.39753465 157.06687492 166.18622958 167.36841615 166.18530273 177.5090332 C166.18748211 180.16569226 166.20568817 182.8219299 166.22460938 185.47851562 C166.38196849 233.20091751 145.89724791 275.57870548 112.62695312 309.36474609 C103.54830769 318.48971115 93.64513011 325.83530627 83 333 C81.93007813 333.73347656 80.86015625 334.46695312 79.7578125 335.22265625 C70.82958633 341.05499101 61.18640069 344.99984037 51.34521484 349.02636719 C49.40967962 349.82991856 47.49294795 350.67860401 45.58203125 351.5390625 C40.0241791 354.03817947 34.46814548 355.80644158 28.5625 357.25 C27.90668945 357.41346924 27.25087891 357.57693848 26.57519531 357.74536133 C14.4489926 360.50868535 1.80680893 360.21315991 -10.56396484 360.24023438 C-13.23176344 360.2499337 -15.89878729 360.28106424 -18.56640625 360.3125 C-47.20570265 360.48811083 -74.86606823 352.49485866 -100 339 C-100.90661377 338.52457764 -100.90661377 338.52457764 -101.83154297 338.03955078 C-116.25433976 330.44839798 -128.26296126 320.19261948 -140 309 C-140.91394531 308.15050781 -141.82789063 307.30101562 -142.76953125 306.42578125 C-168.07642814 282.20501727 -182.63105656 250.24417563 -191.01953125 216.75390625 C-191.80499307 213.21779012 -191.80499307 213.21779012 -193 211 C-195.42863957 188.7824454 -197.59769312 160.95461293 -190.21875 139.58203125 C-189.29721965 136.87355904 -188.47840607 134.20297202 -187.71875 131.44921875 C-176.15556443 89.85632912 -149.61550282 54.23668995 -114 30 C-113.37399902 29.57090332 -112.74799805 29.14180664 -112.10302734 28.69970703 C-94.33655471 16.66553052 -75.20396423 9.66201657 -54.66699219 3.76757812 C-53.08038696 3.31094257 -51.49646454 2.84452073 -49.91894531 2.35742188 C-34.48554426 -2.36900388 -15.91152126 -0.20004131 0 0 Z " fill="#CF1C22" transform="translate(194,0)"/>
<path d="M0 0 C4.84368004 3.77188701 8.2398414 8.68422648 9.34375 14.80078125 C9.79015439 16.78616162 9.79015439 16.78616162 11.4921875 17.76953125 C12.141875 18.04925781 12.7915625 18.32898438 13.4609375 18.6171875 C14.18796875 18.95492187 14.915 19.29265625 15.6640625 19.640625 C16.42203125 19.98351562 17.18 20.32640625 17.9609375 20.6796875 C29.79959358 26.1605468 39.3494774 35.51328831 45.9609375 46.6796875 C46.49332031 47.55753906 47.02570313 48.43539062 47.57421875 49.33984375 C61.26097386 74.03034241 56.49829793 106.77187175 56.9609375 132.6796875 C7.7909375 132.6796875 -41.3790625 132.6796875 -92.0390625 132.6796875 C-90.71354921 53.14889034 -90.71354921 53.14889034 -70.8671875 32.41015625 C-63.9035696 25.73099986 -55.27003564 19.75667855 -46.0390625 16.6796875 C-44.8195272 14.35772492 -44.8195272 14.35772492 -43.7890625 11.5546875 C-40.86055597 4.78306579 -37.22645075 0.59212045 -30.9140625 -3.1953125 C-20.32834548 -7.3375496 -9.48683983 -6.14281966 0 0 Z " fill="#FEFDFD" transform="translate(198.0390625,79.3203125)"/>
<path d="M0 0 C50.16 0 100.32 0 152 0 C153.65 5.28 155.3 10.56 157 16 C158.6351316 19.02499346 159.97203459 21.36042597 162 24 C162.721875 25.0725 163.44375 26.145 164.1875 27.25 C167.47557249 30.46500422 170.38647732 31.60887315 174.6953125 33.04296875 C177.12973791 34.05387422 178.38287833 34.93482233 180 37 C180.66937792 40.84892306 180.39213687 42.43717764 178.14680481 45.65983582 C173.56438197 49.06761687 169.72207341 48.66492113 164.15112305 48.56762695 C163.05799301 48.56835709 161.96486298 48.56908722 160.83860779 48.56983948 C157.22913825 48.56635892 153.62096258 48.52747273 150.01171875 48.48828125 C147.50780441 48.47895487 145.00388095 48.47183793 142.49995422 48.46684265 C136.58544511 48.44970947 130.67135043 48.41031234 124.75705415 48.3600952 C117.3609051 48.29866294 109.96469833 48.27185732 102.56835938 48.24414062 C89.37867089 48.19052962 76.18936481 48.106162 63 48 C62.69819824 49.26996826 62.39639648 50.53993652 62.08544922 51.84838867 C61.28620286 55.21158151 60.31109158 57.5770538 58.125 60.3125 C57.63257813 60.94800781 57.14015625 61.58351563 56.6328125 62.23828125 C54.8755339 64.13429237 53.1812189 65.61000756 51 67 C50.01 67 49.02 67 48 67 C48 67.66 48 68.32 48 69 C38.06491156 71.8385967 29.13830656 72.0446462 19.875 66.9375 C12.94335408 62.31185439 10.14964742 55.78806689 8 48 C6.62279785 48.0314209 6.62279785 48.0314209 5.21777344 48.06347656 C1.80344572 48.13174583 -1.61015443 48.18184385 -5.02490234 48.21972656 C-6.5012559 48.23981301 -7.97753019 48.26708801 -9.45361328 48.30175781 C-11.57864962 48.35041184 -13.70263234 48.37299673 -15.828125 48.390625 C-17.1059082 48.41157227 -18.38369141 48.43251953 -19.70019531 48.45410156 C-23 48 -23 48 -25.40917969 46.19042969 C-27 44 -27 44 -27.625 40.5625 C-26.94415533 36.68168541 -26.00370836 35.40739876 -22.84765625 33.109375 C-20.92428252 31.95453749 -18.97269122 31.00478967 -16.9375 30.0625 C-9.29740535 26.38770162 -6.29100598 19.44806617 -3 12 C-2.01 8.04 -1.02 4.08 0 0 Z " fill="#FDFDFD" transform="translate(104,216)"/>
<path d="M0 0 C-3.43818811 3.18350751 -6.0834158 3.40267177 -10.6875 3.5625 C-12.79529466 3.63987177 -14.9034732 3.76900193 -17 4 C-17.33 4.66 -17.66 5.32 -18 6 C-19.84765625 6.6328125 -19.84765625 6.6328125 -22.0625 7.125 C-22.79597656 7.29257813 -23.52945313 7.46015625 -24.28515625 7.6328125 C-24.85105469 7.75398437 -25.41695312 7.87515625 -26 8 C-25.67 7.34 -25.34 6.68 -25 6 C-26.46067199 6.45082469 -27.91848032 6.91093537 -29.375 7.375 C-30.18710938 7.63023438 -30.99921875 7.88546875 -31.8359375 8.1484375 C-34.16459185 8.89854283 -34.16459185 8.89854283 -36 11 C-39.125 11.125 -39.125 11.125 -42 11 C-42 11.66 -42 12.32 -42 13 C-43.85625 13.680625 -43.85625 13.680625 -45.75 14.375 C-48.59245495 15.4384007 -51.32663046 16.55192483 -54 18 C-53.01 18.99 -53.01 18.99 -52 20 C-53.32 20 -54.64 20 -56 20 C-56 20.66 -56 21.32 -56 22 C-56.66 22 -57.32 22 -58 22 C-58 21.34 -58 20.68 -58 20 C-66.56642424 23.07818079 -66.56642424 23.07818079 -72 30 C-72.5775 29.814375 -73.155 29.62875 -73.75 29.4375 C-76.20692525 28.95976454 -77.64397534 29.24270636 -80 30 C-80 30.66 -80 31.32 -80 32 C-82.39288912 35.05758054 -85.50801674 36.43975216 -89 38 C-89.66 38 -90.32 38 -91 38 C-91.33 38.99 -91.66 39.98 -92 41 C-92.66 41 -93.32 41 -94 41 C-94.33 41.99 -94.66 42.98 -95 44 C-97.5625 45.1875 -97.5625 45.1875 -100 46 C-99.67 46.66 -99.34 47.32 -99 48 C-98.01 48 -97.02 48 -96 48 C-96 49.98 -96 51.96 -96 54 C-97.1446875 53.9071875 -97.1446875 53.9071875 -98.3125 53.8125 C-100.99219029 53.763967 -100.99219029 53.763967 -102.75 55.25 C-104.14386368 56.9194937 -104.14386368 56.9194937 -104.29296875 59 C-105 61 -105 61 -107.06640625 62.046875 C-107.89011719 62.27890625 -108.71382812 62.5109375 -109.5625 62.75 C-110.38878906 62.99234375 -111.21507812 63.2346875 -112.06640625 63.484375 C-112.70449219 63.65453125 -113.34257813 63.8246875 -114 64 C-114.33 65.65 -114.66 67.3 -115 69 C-115.66 69 -116.32 69 -117 69 C-117.33 68.34 -117.66 67.68 -118 67 C-120.29947981 68.97571785 -120.29947981 68.97571785 -121 72.5 C-122 76 -122 76 -124 78 C-125.32 78 -126.64 78 -128 78 C-128.33 80.64 -128.66 83.28 -129 86 C-130.485 86.495 -130.485 86.495 -132 87 C-133.1552144 89.71138905 -133.1552144 89.71138905 -134 93 C-134.37461567 94.29177818 -134.74960953 95.58344676 -135.125 96.875 C-135.558125 98.421875 -135.558125 98.421875 -136 100 C-136.99 100 -137.98 100 -139 100 C-139.29003906 100.92232422 -139.29003906 100.92232422 -139.5859375 101.86328125 C-139.84632813 102.67152344 -140.10671875 103.47976562 -140.375 104.3125 C-140.75785156 105.51326172 -140.75785156 105.51326172 -141.1484375 106.73828125 C-142 109 -142 109 -144 112 C-144.34541851 114.33157492 -144.67794257 116.66508361 -145 119 C-145.89816987 121.69450962 -146.90876651 123.85719976 -148.4375 126.25 C-150.73551354 130.29450382 -153.45620734 135.34705514 -152.640625 140.08984375 C-152.42921875 140.72019531 -152.2178125 141.35054687 -152 142 C-151.67 142.99 -151.34 143.98 -151 145 C-152.15661157 147.20807663 -153.22677434 149.22677434 -155 151 C-155.14499624 152.48938789 -155.22708483 153.98502021 -155.28125 155.48046875 C-155.31863281 156.39763672 -155.35601562 157.31480469 -155.39453125 158.25976562 C-155.42933594 159.22591797 -155.46414062 160.19207031 -155.5 161.1875 C-155.70967567 166.89145485 -156.0384983 172.36713161 -157 178 C-156.9159214 180.15060316 -156.9159214 180.15060316 -156.5625 182.1875 C-155.86005411 187.46484992 -155.9105883 192.6849709 -156 198 C-155.01 198 -154.02 198 -153 198 C-152.05221217 204.31858554 -152.12791809 209.86294923 -152.94140625 216.203125 C-153.00766425 219.36584028 -152.2803748 221.13375746 -151 224 C-150.28194178 226.81699763 -149.62115438 229.64191146 -148.9765625 232.4765625 C-147.82384402 235.45518705 -146.50161004 236.13655579 -144 238 C-143.47200324 240.76142303 -143.81401019 243.16365545 -144 246 C-140.98968256 246.93423645 -140.13349732 247.04449911 -137 246 C-137.01160156 246.64066406 -137.02320313 247.28132812 -137.03515625 247.94140625 C-137.13157349 257.18368723 -136.38277964 263.35287763 -131 271 C-130.01 270.34 -129.02 269.68 -128 269 C-127.67 271.97 -127.34 274.94 -127 278 C-124.69 278 -122.38 278 -120 278 C-120.08701172 278.85271484 -120.08701172 278.85271484 -120.17578125 279.72265625 C-120.43880772 284.22416645 -120.28227485 287.27133196 -117.6875 291.0625 C-116.3571875 292.5165625 -116.3571875 292.5165625 -115 294 C-114.01 294 -113.02 294 -112 294 C-111.76925781 294.53109375 -111.53851563 295.0621875 -111.30078125 295.609375 C-109.18810777 300.18544245 -107.36183544 303.20395164 -103 306 C-102.01 306.33 -101.02 306.66 -100 307 C-98.66666667 309 -97.33333333 311 -96 313 C-93.28664979 315.44863311 -91.46956331 316.8434789 -88 318 C-86.29006566 319.6222454 -84.62652316 321.29413425 -83 323 C-82.236875 323.763125 -81.47375 324.52625 -80.6875 325.3125 C-80.130625 325.869375 -79.57375 326.42625 -79 327 C-87.67509328 327 -98.41969117 314.2422013 -104.54736328 308.38525391 C-105.94633722 307.05117355 -107.3615567 305.73419271 -108.77734375 304.41796875 C-134.08162562 280.20282383 -148.63268449 248.23767625 -157.01953125 214.75390625 C-157.80499307 211.21779012 -157.80499307 211.21779012 -159 209 C-161.42863957 186.7824454 -163.59769312 158.95461293 -156.21875 137.58203125 C-155.29721965 134.87355904 -154.47840607 132.20297202 -153.71875 129.44921875 C-142.15556443 87.85632912 -115.61550282 52.23668995 -80 28 C-79.37399902 27.57090332 -78.74799805 27.14180664 -78.10302734 26.69970703 C-63.32979416 16.69301074 -47.54454625 9.87468236 -30.5625 4.5 C-29.50949707 4.16145996 -28.45649414 3.82291992 -27.37158203 3.47412109 C-18.30771126 0.73295673 -9.44420058 -0.07818586 0 0 Z " fill="#A6141D" transform="translate(160,2)"/>
<path d="M0 0 C0.66 0.99 1.32 1.98 2 3 C-0.875 7.875 -0.875 7.875 -2 9 C-2.14499624 10.48938789 -2.22708483 11.98502021 -2.28125 13.48046875 C-2.31863281 14.39763672 -2.35601563 15.31480469 -2.39453125 16.25976562 C-2.42933594 17.22591797 -2.46414062 18.19207031 -2.5 19.1875 C-2.70967567 24.89145485 -3.0384983 30.36713161 -4 36 C-3.9159214 38.15060316 -3.9159214 38.15060316 -3.5625 40.1875 C-2.86005411 45.46484992 -2.9105883 50.6849709 -3 56 C-2.01 56 -1.02 56 0 56 C0.94778783 62.31858554 0.87208191 67.86294923 0.05859375 74.203125 C-0.00766425 77.36584028 0.7196252 79.13375746 2 82 C2.71805822 84.81699763 3.37884562 87.64191146 4.0234375 90.4765625 C5.17615598 93.45518705 6.49838996 94.13655579 9 96 C9.52799676 98.76142303 9.18598981 101.16365545 9 104 C12.01031744 104.93423645 12.86650268 105.04449911 16 104 C15.98839844 104.64066406 15.97679688 105.28132813 15.96484375 105.94140625 C15.86842651 115.18368723 16.61722036 121.35287763 22 129 C23.485 128.01 23.485 128.01 25 127 C25.495 131.455 25.495 131.455 26 136 C28.31 136 30.62 136 33 136 C32.91298828 136.85271484 32.91298828 136.85271484 32.82421875 137.72265625 C32.56119228 142.22416645 32.71772515 145.27133196 35.3125 149.0625 C36.199375 150.031875 37.08625 151.00125 38 152 C38.99 152 39.98 152 41 152 C41.23074219 152.53109375 41.46148437 153.0621875 41.69921875 153.609375 C43.81189223 158.18544245 45.63816456 161.20395164 50 164 C50.99 164.33 51.98 164.66 53 165 C54.33333333 167 55.66666667 169 57 171 C59.71335021 173.44863311 61.53043669 174.8434789 65 176 C66.70993434 177.6222454 68.37347684 179.29413425 70 181 C70.763125 181.763125 71.52625 182.52625 72.3125 183.3125 C72.869375 183.869375 73.42625 184.42625 74 185 C65.32490672 185 54.58030883 172.2422013 48.45263672 166.38525391 C47.05366278 165.05117355 45.6384433 163.73419271 44.22265625 162.41796875 C18.91837438 138.20282383 4.36731551 106.23767625 -4.01953125 72.75390625 C-4.80499307 69.21779012 -4.80499307 69.21779012 -6 67 C-11.56146179 16.12292359 -11.56146179 16.12292359 -5 3 C-3.68352881 2.30062468 -2.34977849 1.63270867 -1 1 C-0.67 0.67 -0.34 0.34 0 0 Z " fill="#97151E" transform="translate(7,144)"/>
<path d="M0 0 C0 0.99 0 1.98 0 3 C-0.66 3.66 -1.32 4.32 -2 5 C-2.33 6.155 -2.66 7.31 -3 8.5 C-4 12 -4 12 -6 14 C-7.32 14 -8.64 14 -10 14 C-10.33 16.64 -10.66 19.28 -11 22 C-11.99 22.33 -12.98 22.66 -14 23 C-15.1552144 25.71138905 -15.1552144 25.71138905 -16 29 C-16.37461567 30.29177818 -16.74960953 31.58344676 -17.125 32.875 C-17.558125 34.421875 -17.558125 34.421875 -18 36 C-18.99 36 -19.98 36 -21 36 C-21.29003906 36.92232422 -21.29003906 36.92232422 -21.5859375 37.86328125 C-21.84632812 38.67152344 -22.10671875 39.47976562 -22.375 40.3125 C-22.75785156 41.51326172 -22.75785156 41.51326172 -23.1484375 42.73828125 C-24 45 -24 45 -26 48 C-26.34541851 50.33157492 -26.67794257 52.66508361 -27 55 C-27.89816987 57.69450962 -28.90876651 59.85719976 -30.4375 62.25 C-34.06191273 68.6289664 -35.56565445 75.86202158 -37 83 C-37.66 82.34 -38.32 81.68 -39 81 C-38.54928864 53.61928494 -20.21192488 22.34456561 -3 2 C-2.01 1.34 -1.02 0.68 0 0 Z " fill="#93121A" transform="translate(42,66)"/>
<path d="M0 0 C0.66 0.99 1.32 1.98 2 3 C-0.875 7.875 -0.875 7.875 -2 9 C-2.14499624 10.48938789 -2.22708483 11.98502021 -2.28125 13.48046875 C-2.31863281 14.39763672 -2.35601563 15.31480469 -2.39453125 16.25976562 C-2.42933594 17.22591797 -2.46414062 18.19207031 -2.5 19.1875 C-2.70967567 24.89145485 -3.0384983 30.36713161 -4 36 C-3.9159214 38.15060316 -3.9159214 38.15060316 -3.5625 40.1875 C-2.86005411 45.46484992 -2.9105883 50.6849709 -3 56 C-2.01 56 -1.02 56 0 56 C0.75612577 61.23471686 1.2063366 65.77254141 0 71 C-0.66 70.67 -1.32 70.34 -2 70 C-2.625 67.4375 -2.625 67.4375 -3 65 C-3.495 65.99 -3.495 65.99 -4 67 C-4.66 67 -5.32 67 -6 67 C-10.3237858 13.64757161 -10.3237858 13.64757161 -5 3 C-3.68352881 2.30062468 -2.34977849 1.63270867 -1 1 C-0.67 0.67 -0.34 0.34 0 0 Z " fill="#A83132" transform="translate(7,144)"/>
<path d="M0 0 C0.66 0 1.32 0 2 0 C1.1830411 10.82470539 -2.3264976 21.23035797 -10.73046875 28.49609375 C-14.27368884 31.13199921 -18.03269803 33.06248043 -22 35 C-24.36410488 36.93731528 -24.36410488 36.93731528 -24.3125 40.4375 C-24.29111563 43.83020807 -24.29111563 43.83020807 -22.92260742 45.69067383 C-19.99585559 47.68383828 -17.43403533 47.44012173 -13.92578125 47.51171875 C-13.2419487 47.52966995 -12.55811615 47.54762115 -11.8535614 47.56611633 C-9.67327 47.62022075 -7.49319744 47.6541134 -5.3125 47.6875 C-3.83265183 47.7206732 -2.35283255 47.75516287 -0.87304688 47.79101562 C2.75133351 47.87842356 6.37471773 47.93848263 10 48 C11.98 52.29 13.96 56.58 16 61 C12 60 12 60 10.734375 58.22265625 C10.24710938 57.15337891 10.24710938 57.15337891 9.75 56.0625 C9.41484375 55.35222656 9.0796875 54.64195312 8.734375 53.91015625 C8 52 8 52 8 50 C6.92685547 50.06900513 6.92685547 50.06900513 5.83203125 50.1394043 C2.55550157 50.33994868 -0.72193609 50.51391245 -4 50.6875 C-5.12535156 50.76033203 -6.25070313 50.83316406 -7.41015625 50.90820312 C-14.03534065 51.23752516 -19.09933522 51.21274176 -25 48 C-25.703125 45.8894043 -25.703125 45.8894043 -26 44 C-26.66 44 -27.32 44 -28 44 C-28.05395478 42.37536158 -28.09277195 40.75021459 -28.125 39.125 C-28.15980469 37.76761719 -28.15980469 37.76761719 -28.1953125 36.3828125 C-28 34 -28 34 -26 32 C-24.41602769 31.43930184 -22.80728033 30.94683595 -21.1875 30.5 C-17.69712137 29.50491376 -14.33633457 28.44574498 -11 27 C-11 26.34 -11 25.68 -11 25 C-10.34 25 -9.68 25 -9 25 C-8.33085617 23.66790813 -7.66486912 22.33423059 -7 21 C-6.5978125 20.19304687 -6.195625 19.38609375 -5.78125 18.5546875 C-2.85349595 12.43139702 -0.97644949 6.71855545 0 0 Z " fill="#9B181C" transform="translate(102,216)"/>
<path d="M0 0 C50.16 0 100.32 0 152 0 C153.65 5.28 155.3 10.56 157 16 C157.99 18.97 157.99 18.97 159 22 C158.01 22 157.02 22 156 22 C155.67 20.35 155.34 18.7 155 17 C154.34 17 153.68 17 153 17 C152.66104344 15.27192682 152.32908475 13.54248026 152 11.8125 C151.814375 10.84957031 151.62875 9.88664063 151.4375 8.89453125 C151 6 151 6 151 1 C76.75 1.495 76.75 1.495 1 2 C1 4.31 1 6.62 1 9 C-0.5 10.9375 -0.5 10.9375 -2 12 C-1.51775271 7.86645178 -1.01114519 4.04458076 0 0 Z " fill="#FFF3F1" transform="translate(104,216)"/>
<path d="M0 0 C1.81854492 0.00157104 1.81854492 0.00157104 3.67382812 0.00317383 C4.96482422 0.01630615 6.25582031 0.02943848 7.5859375 0.04296875 C8.90013672 0.05158936 10.21433594 0.06020996 11.56835938 0.0690918 C25.72036049 0.19899866 39.2170523 0.42998571 52.9609375 4.23046875 C52.9609375 4.89046875 52.9609375 5.55046875 52.9609375 6.23046875 C47.06603135 6.42374436 41.79762908 5.98469937 36.02734375 4.765625 C26.86048215 3.16580329 17.74785358 3.07656756 8.4609375 3.10546875 C7.18734375 3.10160156 5.91375 3.09773437 4.6015625 3.09375 C3.38984375 3.09503906 2.178125 3.09632812 0.9296875 3.09765625 C-0.71870117 3.09934814 -0.71870117 3.09934814 -2.40039062 3.10107422 C-5.01747057 3.05181079 -5.01747057 3.05181079 -7.0390625 4.23046875 C-7.6990625 3.57046875 -8.3590625 2.91046875 -9.0390625 2.23046875 C-5.53641045 -0.10463261 -4.13802068 -0.01558404 0 0 Z " fill="#D43C40" transform="translate(171.0390625,-0.23046875)"/>
<path d="M0 0 C1.19818775 3.59456325 0.66427331 4.6086162 -0.40234375 8.1796875 C-2.95673334 18.65573442 -2.50029457 29.40143058 -2.5625 40.125 C-2.58646154 43.34843276 -2.61481984 46.57160937 -2.65428162 49.79489136 C-2.67822115 51.78611318 -2.69341658 53.77746865 -2.69789124 55.76882935 C-2.77097328 62.35632858 -3.63618637 68.55762558 -5 75 C-5.33 75 -5.66 75 -6 75 C-6.05115609 68.11730157 -6.08592295 61.23465306 -6.10986328 54.35180664 C-6.11985497 52.01552498 -6.13345288 49.67925561 -6.15087891 47.34301758 C-6.40185907 12.80371814 -6.40185907 12.80371814 0 0 Z " fill="#A6282C" transform="translate(110,136)"/>
<path d="M0 0 C2.31 0 4.62 0 7 0 C6.67 1.65 6.34 3.3 6 5 C4.68 5 3.36 5 2 5 C2 6.32 2 7.64 2 9 C1.34 9 0.68 9 0 9 C-1.06418114 10.98647147 -1.9435632 12.67909774 -2.3359375 14.91015625 C-3.65236893 19.05304338 -7.53035857 21.5984267 -11 24 C-14.5 24.9375 -14.5 24.9375 -17 25 C-16.3125 22.6875 -16.3125 22.6875 -15 20 C-14.175 19.5875 -13.35 19.175 -12.5 18.75 C-9.50435007 16.65304505 -9.43951491 15.78042486 -8.6875 12.3125 C-8.43818335 10.87835746 -8.2024751 9.4415018 -8 8 C-5.69 8 -3.38 8 -1 8 C-0.67 5.36 -0.34 2.72 0 0 Z " fill="#E81C26" transform="translate(305,297)"/>
<path d="M0 0 C0.33 0 0.66 0 1 0 C1.13277344 0.71027344 1.26554688 1.42054688 1.40234375 2.15234375 C1.57894531 3.07144531 1.75554688 3.99054688 1.9375 4.9375 C2.11152344 5.85402344 2.28554687 6.77054688 2.46484375 7.71484375 C2.77714988 9.95289844 2.77714988 9.95289844 4 11 C3.979375 11.9075 3.95875 12.815 3.9375 13.75 C4.00265061 17.13783158 4.73498723 18.90368716 6 22 C6.71805822 24.81699763 7.37884562 27.64191146 8.0234375 30.4765625 C9.17615598 33.45518705 10.49838996 34.13655579 13 36 C13.52799676 38.76142303 13.18598981 41.16365545 13 44 C13.99 44.33 14.98 44.66 16 45 C15.01 45 14.02 45 13 45 C13 46.65 13 48.3 13 50 C7.1186609 41.17799135 4.31332909 30.25911948 1.5625 20.125 C1.29147461 19.16303711 1.02044922 18.20107422 0.74121094 17.20996094 C-0.86812405 11.03906716 -1.09163316 6.29142422 0 0 Z " fill="#8D121A" transform="translate(3,204)"/>
<path d="M0 0 C1.2485686 0.00138269 1.2485686 0.00138269 2.5223608 0.00279331 C3.47453487 0.00141865 4.42670895 0.00004398 5.40773678 -0.00137234 C6.46077496 0.00222294 7.51381313 0.00581821 8.59876156 0.00952244 C10.25221081 0.0093034 10.25221081 0.0093034 11.93906307 0.00907993 C15.60226021 0.00977961 19.26540723 0.01757459 22.92859554 0.02539158 C25.46065398 0.02725556 27.99271277 0.02867956 30.52477169 0.0296793 C36.52067179 0.03311437 42.51655019 0.04100514 48.51244158 0.05102879 C55.33699987 0.06219105 62.16155901 0.06770066 68.98612416 0.07272422 C83.02815593 0.08318779 97.07017162 0.10078653 111.11218929 0.12304783 C111.11218929 0.45304783 111.11218929 0.78304783 111.11218929 1.12304783 C74.15218929 1.12304783 37.19218929 1.12304783 -0.88781071 1.12304783 C-1.54781071 3.76304783 -2.20781071 6.40304783 -2.88781071 9.12304783 C-3.98889066 5.81980796 -3.75490342 4.41800014 -2.88781071 1.12304783 C-1.88781071 0.12304783 -1.88781071 0.12304783 0 0 Z " fill="#FEDADC" transform="translate(167.88781070709229,262.8769521713257)"/>
<path d="M0 0 C5.23036054 0.44513707 9.11097559 1.84140285 13.84375 4.078125 C16.52140238 5.22291841 19.1112113 5.70371398 22 6 C22 6.66 22 7.32 22 8 C23.98 7.67 25.96 7.34 28 7 C28 7.66 28 8.32 28 9 C30.38507836 9.47701567 32.770272 9.95327718 35.15625 10.42578125 C36.93001651 10.78394564 38.70142384 11.15426885 40.46875 11.54296875 C46.95098015 12.94254117 53.38657912 13.56819589 60 14 C60 14.66 60 15.32 60 16 C39.18684774 16.99110249 18.65410188 9.58149548 0 1 C0 0.67 0 0.34 0 0 Z " fill="#B0141C" transform="translate(104,343)"/>
<path d="M0 0 C7.59 0 15.18 0 23 0 C19.5 5.83333333 19.5 5.83333333 16 7 C11.38680026 7.57758761 7.25838889 7.51362812 2.9375 5.75 C1 4 1 4 0 0 Z " fill="#C1181F" transform="translate(128,264)"/>
<path d="M0 0 C0.66 0.33 1.32 0.66 2 1 C2 2.98 2 4.96 2 7 C1.236875 6.938125 0.47375 6.87625 -0.3125 6.8125 C-2.99219029 6.763967 -2.99219029 6.763967 -4.75 8.25 C-6.14889045 9.91815688 -6.14889045 9.91815688 -6.26171875 12 C-6.50535156 12.66 -6.74898437 13.32 -7 14 C-9.28515625 15.046875 -9.28515625 15.046875 -12.0625 15.75 C-13.44115234 16.11351562 -13.44115234 16.11351562 -14.84765625 16.484375 C-15.55792969 16.65453125 -16.26820312 16.8246875 -17 17 C-15.37159701 13.59780091 -13.51714616 10.83178943 -11 8 C-10.34 8 -9.68 8 -9 8 C-8.938125 7.4225 -8.87625 6.845 -8.8125 6.25 C-7.3137468 2.09960652 -4.34140058 0 0 0 Z " fill="#B0191E" transform="translate(62,49)"/>
<path d="M0 0 C0.91058531 3.07322544 1.08886184 5.80097361 1 9 C1.99 9.33 2.98 9.66 4 10 C3.67 10.66 3.34 11.32 3 12 C14.22 12 25.44 12 37 12 C37.495 17.445 37.495 17.445 38 23 C38.66 23.33 39.32 23.66 40 24 C39.01 24 38.02 24 37 24 C36.32880451 22.5437455 35.66318193 21.08492133 35 19.625 C34.62875 18.81289063 34.2575 18.00078125 33.875 17.1640625 C33 15 33 15 33 13 C32.08186523 13.02094727 31.16373047 13.04189453 30.21777344 13.06347656 C26.80344572 13.13174583 23.38984557 13.18184385 19.97509766 13.21972656 C18.4987441 13.23981301 17.02246981 13.26708801 15.54638672 13.30175781 C13.42135038 13.35041184 11.29736766 13.37299673 9.171875 13.390625 C7.8940918 13.41157227 6.61630859 13.43251953 5.29980469 13.45410156 C2 13 2 13 -0.42480469 11.20214844 C-2.67213213 8.06034844 -2.41817902 5.76361115 -2 2 C-1.34 1.34 -0.68 0.68 0 0 Z " fill="#FDDEDC" transform="translate(79,251)"/>
<path d="M0 0 C1 3 1 3 0.46875 4.984375 C-1.67108789 7.92096103 -4.20417062 8.77404162 -7.5 10.25 C-17.49723317 14.9619001 -25.07778751 21.38161623 -32 30 C-32.33 28.68 -32.66 27.36 -33 26 C-32.278125 25.443125 -31.55625 24.88625 -30.8125 24.3125 C-27.98537778 22.07441142 -27.98537778 22.07441142 -25.625 19.5625 C-17.87804878 12 -17.87804878 12 -14 12 C-14 10.35 -14 8.7 -14 7 C-14.66 6.67 -15.32 6.34 -16 6 C-15.34 5.67 -14.68 5.34 -14 5 C-13.0925 5.350625 -12.185 5.70125 -11.25 6.0625 C-7.29332186 7.20384946 -5.62549441 6.89514481 -2 5 C-0.56076801 2.49004504 -0.56076801 2.49004504 0 0 Z " fill="#C21E25" transform="translate(153,90)"/>
<path d="M0 0 C0.33 0 0.66 0 1 0 C1 1.98 1 3.96 1 6 C-5.4 10.06153846 -5.4 10.06153846 -8.4375 9.75 C-8.953125 9.5025 -9.46875 9.255 -10 9 C-10.33 9.66 -10.66 10.32 -11 11 C-11.66666667 12.33333333 -12.33333333 13.66666667 -13 15 C-13.99 15 -14.98 15 -16 15 C-16.66 16.32 -17.32 17.64 -18 19 C-20.31 19 -22.62 19 -25 19 C-18.80745211 12.20817328 -11.2988813 7.91662725 -2.96875 4.17578125 C-0.66836645 3.09233715 -0.66836645 3.09233715 0 0 Z " fill="#F8DDDA" transform="translate(153,93)"/>
<path d="M0 0 C0.66 0 1.32 0 2 0 C2.33 2.64 2.66 5.28 3 8 C3.33 8 3.66 8 4 8 C4 11.3 4 14.6 4 18 C3.34 18 2.68 18 2 18 C2 18.66 2 19.32 2 20 C1.34 20 0.68 20 0 20 C-0.28875 19.360625 -0.5775 18.72125 -0.875 18.0625 C-1.82823451 15.84793921 -1.82823451 15.84793921 -4 15 C-3.5359375 14.0409375 -3.5359375 14.0409375 -3.0625 13.0625 C-1.87185493 9.63064067 -1.53838593 6.49357354 -1.24609375 2.890625 C-1 1 -1 1 0 0 Z " fill="#EF1B24" transform="translate(355,196)"/>
<path d="M0 0 C1.87280273 0.28833008 1.87280273 0.28833008 4 1 C5.53887466 3.56085284 6.82180015 5.98855948 8.0625 8.6875 C8.40087891 9.39583984 8.73925781 10.10417969 9.08789062 10.83398438 C9.7558251 12.23315852 10.41652339 13.63581235 11.06958008 15.04199219 C11.89603985 16.78122266 12.79479559 18.48568442 13.703125 20.18359375 C15.02977389 23.06465957 15.47496635 25.22950204 15.6875 28.375 C15.78611328 29.68597656 15.78611328 29.68597656 15.88671875 31.0234375 C15.92410156 31.67570312 15.96148437 32.32796875 16 33 C13.3312186 30.3312186 12.67637273 27.68259871 11.4375 24.125 C10.78587891 22.27261719 10.78587891 22.27261719 10.12109375 20.3828125 C9.30527759 17.9211512 8.56493853 15.52635433 8 13 C7.34 13 6.68 13 6 13 C3.81259023 8.72934283 1.85667911 4.42066456 0 0 Z " fill="#D1111B" transform="translate(332,87)"/>
<path d="M0 0 C0.33 0.99 0.66 1.98 1 3 C0.67 3.33 0.34 3.66 0 4 C-0.10510736 5.60288726 -0.1842028 7.20751842 -0.25 8.8125 C-0.58600047 12.79325133 -0.66081471 13.6525419 -3.5625 16.625 C-4.7690625 17.305625 -4.7690625 17.305625 -6 18 C-7.3357457 14.22628488 -6.72408671 11.14168653 -6.0625 7.25 C-5.86785156 6.07953125 -5.67320312 4.9090625 -5.47265625 3.703125 C-5.31667969 2.81109375 -5.16070312 1.9190625 -5 1 C-3.35 0.67 -1.7 0.34 0 0 Z " fill="#EE1A24" transform="translate(350,231)"/>
<path d="M0 0 C0.33 0.66 0.66 1.32 1 2 C-7.25 2 -15.5 2 -24 2 C-24 1.34 -24 0.68 -24 0 C-15.04192753 -3.83917392 -8.93708439 -4.07656481 0 0 Z " fill="#AB2221" transform="translate(192,91)"/>
<path d="M0 0 C4.2358357 -0.02469321 8.47163342 -0.04285671 12.70751953 -0.05493164 C14.1489332 -0.05996474 15.59034176 -0.06679173 17.03173828 -0.07543945 C19.10190085 -0.08754983 21.17199601 -0.09323847 23.2421875 -0.09765625 C24.4885498 -0.10289307 25.73491211 -0.10812988 27.01904297 -0.11352539 C30 0 30 0 32 1 C32.93845254 2.82287297 33.80435092 4.68364553 34.625 6.5625 C35.07101563 7.57441406 35.51703125 8.58632813 35.9765625 9.62890625 C36.31429687 10.41136719 36.65203125 11.19382812 37 12 C35.140625 11.74609375 35.140625 11.74609375 33 11 C31.734375 9.22265625 31.734375 9.22265625 30.75 7.0625 C30.41484375 6.35222656 30.0796875 5.64195312 29.734375 4.91015625 C29 3 29 3 29 1 C27.89543457 1.0611499 27.89543457 1.0611499 26.76855469 1.12353516 C23.42952998 1.30201661 20.08989634 1.46368777 16.75 1.625 C15.01169922 1.72167969 15.01169922 1.72167969 13.23828125 1.8203125 C12.12324219 1.871875 11.00820312 1.9234375 9.859375 1.9765625 C8.31975098 2.05511475 8.31975098 2.05511475 6.74902344 2.13525391 C3.93033131 1.99657225 2.38172237 1.45992606 0 0 Z " fill="#B71219" transform="translate(81,265)"/>
<path d="M0 0 C1.31823302 0.59155331 2.62947051 1.19871463 3.9375 1.8125 C5.03384766 2.31716797 5.03384766 2.31716797 6.15234375 2.83203125 C8 4 8 4 9 7 C9.99 7.33 10.98 7.66 12 8 C12.99 9.485 12.99 9.485 14 11 C13.01 12.32 12.02 13.64 11 15 C10.01 14.67 9.02 14.34 8 14 C7.67 12.02 7.34 10.04 7 8 C5.02 7.34 3.04 6.68 1 6 C0.67 4.02 0.34 2.04 0 0 Z " fill="#E11921" transform="translate(280,33)"/>
<path d="M0 0 C7.92 0 15.84 0 24 0 C25 5 25 5 23.484375 7.296875 C20.22166169 9.53357784 18.16836444 9.40673458 14.25 9.25 C13.07953125 9.21390625 11.9090625 9.1778125 10.703125 9.140625 C9.81109375 9.09421875 8.9190625 9.0478125 8 9 C8 8.67 8 8.34 8 8 C8.67546875 7.90203125 9.3509375 7.8040625 10.046875 7.703125 C11.38492188 7.47882813 11.38492188 7.47882813 12.75 7.25 C13.63171875 7.11078125 14.5134375 6.9715625 15.421875 6.828125 C18.57851306 6.03079254 18.57851306 6.03079254 22 2 C14.74 1.67 7.48 1.34 0 1 C0 0.67 0 0.34 0 0 Z " fill="#F7CECD" transform="translate(128,263)"/>
<path d="M0 0 C0.99 0.66 1.98 1.32 3 2 C2.2575 2.4125 1.515 2.825 0.75 3.25 C-2.54875878 5.34921013 -5.23252144 7.46504288 -7 11 C-7.5775 10.814375 -8.155 10.62875 -8.75 10.4375 C-11.20692525 9.95976454 -12.64397534 10.24270636 -15 11 C-15 11.66 -15 12.32 -15 13 C-15.66 12.67 -16.32 12.34 -17 12 C-12.33833921 6.50589978 -6.24057917 3.45371766 0 0 Z " fill="#A71214" transform="translate(95,21)"/>
<path d="M0 0 C1.2380014 3.57644848 0.74926071 6.33694766 0 10 C-1.32 10.33 -2.64 10.66 -4 11 C-4.66 13.31 -5.32 15.62 -6 18 C-6.66 18 -7.32 18 -8 18 C-8.66 16.35 -9.32 14.7 -10 13 C-8.68 12.34 -7.36 11.68 -6 11 C-6 10.01 -6 9.02 -6 8 C-5.67 7.34 -5.34 6.68 -5 6 C-4.34 6 -3.68 6 -3 6 C-2.814375 4.7934375 -2.814375 4.7934375 -2.625 3.5625 C-2.41875 2.716875 -2.2125 1.87125 -2 1 C-1.34 0.67 -0.68 0.34 0 0 Z " fill="#E91C24" transform="translate(338,258)"/>
<path d="M0 0 C-0.01160156 0.67546875 -0.02320313 1.3509375 -0.03515625 2.046875 C-0.04417969 2.93890625 -0.05320312 3.8309375 -0.0625 4.75 C-0.07410156 5.63171875 -0.08570313 6.5134375 -0.09765625 7.421875 C-0.00826198 9.7818838 0.33087179 11.74498524 1 14 C0.01 14.495 0.01 14.495 -1 15 C-2.32 12.36 -3.64 9.72 -5 7 C-5.99 7.495 -5.99 7.495 -7 8 C-7 5.69 -7 3.38 -7 1 C-2.25 0 -2.25 0 0 0 Z " fill="#A5191D" transform="translate(23,248)"/>
<path d="M0 0 C8.4342927 -0.45636453 15.85956596 0.82576642 24 3 C24 3.66 24 4.32 24 5 C14.58997722 5.18451025 14.58997722 5.18451025 10 4 C10 3.34 10 2.68 10 2 C6.7 1.67 3.4 1.34 0 1 C0 0.67 0 0.34 0 0 Z " fill="#DA555B" transform="translate(200,1)"/>
<path d="M0 0 C0 0.33 0 0.66 0 1 C-1.27875 1.0825 -2.5575 1.165 -3.875 1.25 C-9.65803955 1.89052653 -16.42550276 3.42550276 -20.65234375 7.65234375 C-21.09707031 8.09707031 -21.54179687 8.54179688 -22 9 C-24.1875 8.6875 -24.1875 8.6875 -26 8 C-18.21174082 0.61113873 -10.52325471 -0.53108014 0 0 Z " fill="#FBD6D1" transform="translate(186,74)"/>
<path d="M0 0 C0.66 0.66 1.32 1.32 2 2 C1.63765057 5.50271119 -0.14404814 8.07330668 -2 11 C-2.433125 11.86625 -2.86625 12.7325 -3.3125 13.625 C-5.4675056 16.65797084 -7.55817455 17.68185408 -11 19 C-11.66 18.67 -12.32 18.34 -13 18 C-11.96875 17.2575 -10.9375 16.515 -9.875 15.75 C-4.877308 11.5360601 -2.59542702 5.87536226 0 0 Z " fill="#F7D6D3" transform="translate(101,228)"/>
<path d="M0 0 C2.0625 0.4375 2.0625 0.4375 4 1 C4 1.66 4 2.32 4 3 C5.0725 3.268125 6.145 3.53625 7.25 3.8125 C10.64762895 4.88841583 12.292862 5.85295952 15 8 C17.14733927 8.70514846 17.14733927 8.70514846 19 9 C18.67 10.32 18.34 11.64 18 13 C15.39230128 11.56861647 12.78890553 10.13023995 10.1875 8.6875 C9.44951172 8.28337891 8.71152344 7.87925781 7.95117188 7.46289062 C7.23896484 7.06650391 6.52675781 6.67011719 5.79296875 6.26171875 C5.1383667 5.90037842 4.48376465 5.53903809 3.80932617 5.16674805 C1.93647816 3.9590378 0.51343075 2.62811563 -1 1 C-0.67 0.67 -0.34 0.34 0 0 Z " fill="#9F131B" transform="translate(83,330)"/>
<path d="M0 0 C1.16015625 0.32484375 1.16015625 0.32484375 2.34375 0.65625 C12.39420477 3.34300523 19.86237962 3.32666697 30 1 C30 1.66 30 2.32 30 3 C24.91863474 4.66732298 20.36517237 5.31166865 15 5.25 C14.32710937 5.25773437 13.65421875 5.26546875 12.9609375 5.2734375 C8.25052382 5.25525057 4.42515911 4.45200533 0 3 C0 2.01 0 1.02 0 0 Z " fill="#A7171A" transform="translate(124,283)"/>
<path d="M0 0 C7.59 0 15.18 0 23 0 C22.34 1.32 21.68 2.64 21 4 C20.67 3.01 20.34 2.02 20 1 C12.08 1.495 12.08 1.495 4 2 C6.1385485 4.1385485 7.13275314 4.42655063 10 5 C10 5.66 10 6.32 10 7 C6.6936092 6.44893487 3.80017874 5.90012129 1 4 C0.67 2.68 0.34 1.36 0 0 Z " fill="#98171F" transform="translate(128,264)"/>
<path d="M0 0 C3.04386724 -0.08226668 5.07175348 0.02391783 8 1 C9.40824893 1.08021999 10.81997231 1.10765977 12.23046875 1.09765625 C13.03291016 1.09443359 13.83535156 1.09121094 14.66210938 1.08789062 C15.49548828 1.07951172 16.32886719 1.07113281 17.1875 1.0625 C18.4549707 1.05573242 18.4549707 1.05573242 19.74804688 1.04882812 C21.83206155 1.03705403 23.91603977 1.0191189 26 1 C17.94659025 5.09326198 10.48497526 4.63326818 2 2 C1.34 1.34 0.68 0.68 0 0 Z " fill="#F7C8C5" transform="translate(126,283)"/>
<path d="M0 0 C0.91058531 3.07322544 1.08886184 5.80097361 1 9 C1.99 9.33 2.98 9.66 4 10 C3.67 10.66 3.34 11.32 3 12 C6.96 12 10.92 12 15 12 C15 12.33 15 12.66 15 13 C12.91781638 13.10832169 10.83400871 13.18573541 8.75 13.25 C7.00976562 13.31960938 7.00976562 13.31960938 5.234375 13.390625 C2 13 2 13 -0.3984375 11.2109375 C-2.67648121 8.06612594 -2.42033027 5.78297247 -2 2 C-1.34 1.34 -0.68 0.68 0 0 Z " fill="#F9D8D7" transform="translate(79,251)"/>
<path d="M0 0 C0.66 0.99 1.32 1.98 2 3 C-0.65938865 7.68558952 -0.65938865 7.68558952 -2.625 9.5 C-4.4724141 11.51536084 -4.64031493 13.33833049 -5 16 C-5.33 16 -5.66 16 -6 16 C-6.02696365 14.20841511 -6.04637917 12.41671527 -6.0625 10.625 C-6.07410156 9.62726563 -6.08570313 8.62953125 -6.09765625 7.6015625 C-6 5 -6 5 -5 3 C-3.68352881 2.30062468 -2.34977849 1.63270867 -1 1 C-0.67 0.67 -0.34 0.34 0 0 Z " fill="#B5434A" transform="translate(7,144)"/>
<path d="M0 0 C-0.70125 0.4125 -1.4025 0.825 -2.125 1.25 C-8.62225093 5.20484839 -13.85559109 9.41880165 -19 15 C-19.99546492 16.0045146 -20.99388396 17.00615367 -22 18 C-22 16.68 -22 15.36 -22 14 C-19.8125 12.0625 -19.8125 12.0625 -17 10 C-15.88625 8.824375 -15.88625 8.824375 -14.75 7.625 C-5.01176471 -1.67058824 -5.01176471 -1.67058824 0 0 Z " fill="#A21920" transform="translate(142,102)"/>
<path d="M0 0 C0.33 0 0.66 0 1 0 C1.56561146 5.65611463 -0.28608722 9.22642128 -3 14 C-3.66 13.67 -4.32 13.34 -5 13 C-4.814375 12.0925 -4.62875 11.185 -4.4375 10.25 C-4.04265379 7.31685676 -4.05308428 5.7355343 -5 3 C-3.35 2.67 -1.7 2.34 0 2 C0 1.34 0 0.68 0 0 Z " fill="#DF181F" transform="translate(342,253)"/>
<path d="M0 0 C1.32 0.33 2.64 0.66 4 1 C3.3844197 3.14855454 2.75726569 5.29379625 2.125 7.4375 C1.60292969 9.22994141 1.60292969 9.22994141 1.0703125 11.05859375 C0 14 0 14 -2 15 C-2.19392201 9.47322267 -1.7479503 5.24385089 0 0 Z " fill="#C5161E" transform="translate(106,136)"/>
<path d="M0 0 C0.66 0.33 1.32 0.66 2 1 C0.515 3.475 0.515 3.475 -1 6 C-0.34 6 0.32 6 1 6 C0.690625 6.53625 0.38125 7.0725 0.0625 7.625 C-1.17827439 10.3984957 -1.5909675 13.00042837 -2 16 C-2.99 15.01 -3.98 14.02 -5 13 C-5.99 13.495 -5.99 13.495 -7 14 C-5.23570801 9.02790438 -2.6060834 4.56561939 0 0 Z " fill="#9A1A25" transform="translate(26,86)"/>
<path d="M0 0 C0.33 0 0.66 0 1 0 C1.2475 1.11375 1.495 2.2275 1.75 3.375 C2.82134438 7.75421792 4.48683201 11.77559534 6.29296875 15.8984375 C6.52628906 16.59195313 6.75960938 17.28546875 7 18 C6.67 18.66 6.34 19.32 6 20 C5.34 20 4.68 20 4 20 C3.67 18.35 3.34 16.7 3 15 C2.34 15 1.68 15 1 15 C0.28832014 9.92928099 -0.10662326 5.11791642 0 0 Z " fill="#FACECD" transform="translate(256,218)"/>
<path d="M0 0 C0.33 0 0.66 0 1 0 C1.05785647 3.95827235 1.09354717 7.9164367 1.125 11.875 C1.14175781 13.00292969 1.15851562 14.13085938 1.17578125 15.29296875 C1.18222656 16.36933594 1.18867187 17.44570312 1.1953125 18.5546875 C1.20578613 19.54968262 1.21625977 20.54467773 1.22705078 21.56982422 C1 24 1 24 -1 26 C-0.98839844 25.18015625 -0.97679687 24.3603125 -0.96484375 23.515625 C-0.95130859 21.89914063 -0.95130859 21.89914063 -0.9375 20.25 C-0.92589844 19.18265625 -0.91429687 18.1153125 -0.90234375 17.015625 C-0.8792191 14.12903036 -0.8792191 14.12903036 -1.5625 11.9375 C-2.15331883 9.32101661 -1.64480697 7.35325469 -1.0625 4.75 C-0.86785156 3.85796875 -0.67320312 2.9659375 -0.47265625 2.046875 C-0.31667969 1.37140625 -0.16070312 0.6959375 0 0 Z " fill="#94181F" transform="translate(3,150)"/>
<path d="M0 0 C0.99 0.33 1.98 0.66 3 1 C3.33 4.96 3.66 8.92 4 13 C2.35 13.33 0.7 13.66 -1 14 C-1.33 12.68 -1.66 11.36 -2 10 C-0.68 9.34 0.64 8.68 2 8 C1.34 5.36 0.68 2.72 0 0 Z " fill="#E81F2A" transform="translate(284,250)"/>
<path d="M0 0 C0 3 0 3 -2.125 5.625 C-5.25090158 8.20726652 -7.01781501 8.72217314 -11 9 C-10.01548548 5.35729627 -9.37294587 4.22218052 -6.0625 2.25 C-4.0668167 1.43543539 -2.04490602 0.68163534 0 0 Z " fill="#D51721" transform="translate(299,313)"/>
<path d="M0 0 C2.27029534 0.39143023 3.83408198 0.88741278 5.75 2.1875 C7.54267046 4.78687216 7.20510719 6.92339216 7 10 C6.01 10.495 6.01 10.495 5 11 C4.34 8.69 3.68 6.38 3 4 C2.01 4.33 1.02 4.66 0 5 C-0.33 4.01 -0.66 3.02 -1 2 C-0.67 1.34 -0.34 0.68 0 0 Z " fill="#F8D3D6" transform="translate(277,249)"/>
<path d="M0 0 C0.33 0.66 0.66 1.32 1 2 C1.66 2.33 2.32 2.66 3 3 C2.34 3.66 1.68 4.32 1 5 C1.66 5.66 2.32 6.32 3 7 C2.01 7.495 2.01 7.495 1 8 C-1.3828125 7.00390625 -1.3828125 7.00390625 -4.125 5.5625 C-5.03507813 5.08941406 -5.94515625 4.61632812 -6.8828125 4.12890625 C-7.58148438 3.75636719 -8.28015625 3.38382812 -9 3 C-8.34 2.67 -7.68 2.34 -7 2 C-6.34 2.33 -5.68 2.66 -5 3 C-5 2.34 -5 1.68 -5 1 C-3.35 0.67 -1.7 0.34 0 0 Z " fill="#D93138" transform="translate(221,96)"/>
<path d="M0 0 C0.66 0.66 1.32 1.32 2 2 C-0.97 4.97 -3.94 7.94 -7 11 C-7.99 10.67 -8.98 10.34 -10 10 C-8.71937515 8.2925002 -7.38232443 6.62626404 -6 5 C-5.34 5 -4.68 5 -4 5 C-4 3.68 -4 2.36 -4 1 C-2.125 0.375 -2.125 0.375 0 0 Z " fill="#D81326" transform="translate(311,301)"/>
<path d="M0 0 C0.74609375 1.671875 0.74609375 1.671875 1 4 C-0.65234375 6.578125 -0.65234375 6.578125 -2.9375 9.25 C-4.06478516 10.58804687 -4.06478516 10.58804687 -5.21484375 11.953125 C-5.80394531 12.62859375 -6.39304687 13.3040625 -7 14 C-7.66 13.67 -8.32 13.34 -9 13 C-8.40361667 11.72549553 -7.79752584 10.45553123 -7.1875 9.1875 C-6.85105469 8.47980469 -6.51460938 7.77210938 -6.16796875 7.04296875 C-4.97824756 4.96195141 -3.83966269 3.53063798 -2 2 C-1.34 2 -0.68 2 0 2 C0 1.34 0 0.68 0 0 Z " fill="#CE1815" transform="translate(328,279)"/>
<path d="M0 0 C0.99 0.33 1.98 0.66 3 1 C2.01 1.33 1.02 1.66 0 2 C-0.04898438 2.66386719 -0.09796875 3.32773438 -0.1484375 4.01171875 C-0.89103691 12.78207381 -0.89103691 12.78207381 -3 17 C-3.66 17 -4.32 17 -5 17 C-5.33 15.02 -5.66 13.04 -6 11 C-5.34 11 -4.68 11 -4 11 C-3.69255859 9.93458984 -3.69255859 9.93458984 -3.37890625 8.84765625 C-3.10949219 7.92855469 -2.84007813 7.00945312 -2.5625 6.0625 C-2.29566406 5.14597656 -2.02882813 4.22945312 -1.75390625 3.28515625 C-1 1 -1 1 0 0 Z " fill="#BD1A24" transform="translate(102,214)"/>
<path d="M0 0 C3.36720387 1.39332574 4.9859524 2.9789286 7 6 C6.34 6 5.68 6 5 6 C5.66 7.32 6.32 8.64 7 10 C5.68 10 4.36 10 3 10 C0.96564469 6.27034861 0 4.33094958 0 0 Z " fill="#E01C25" transform="translate(310,57)"/>
<path d="M0 0 C6.45353615 2.05764921 12.7361263 4.42383482 19 7 C19 7.33 19 7.66 19 8 C17.02 8 15.04 8 13 8 C13 7.34 13 6.68 13 6 C11.87851563 5.81824219 11.87851563 5.81824219 10.734375 5.6328125 C9.74953125 5.46523437 8.7646875 5.29765625 7.75 5.125 C6.28820312 4.88136719 6.28820312 4.88136719 4.796875 4.6328125 C2.22735883 4.05144152 0.27928944 3.29159735 -2 2 C-1.34 1.34 -0.68 0.68 0 0 Z " fill="#BA1B25" transform="translate(235,8)"/>
<path d="M0 0 C0.99 0 1.98 0 3 0 C4.5625 2.8125 4.5625 2.8125 6 6 C5.67 6.99 5.34 7.98 5 9 C3.68 8.67 2.36 8.34 1 8 C1 7.01 1 6.02 1 5 C0.34 5 -0.32 5 -1 5 C-0.67 3.35 -0.34 1.7 0 0 Z " fill="#F01924" transform="translate(345,120)"/>
<path d="M0 0 C0.33 0.66 0.66 1.32 1 2 C0.01 2 -0.98 2 -2 2 C-2.66 3.32 -3.32 4.64 -4 6 C-6.31 6 -8.62 6 -11 6 C-7.50912907 1.9957657 -5.35048061 0.37328935 0 0 Z " fill="#F5E6DD" transform="translate(139,106)"/>
<path d="M0 0 C0.33 0.66 0.66 1.32 1 2 C1.99 2 2.98 2 4 2 C4.66 3.65 5.32 5.3 6 7 C2.86650268 8.04449911 2.01031744 7.93423645 -1 7 C-1.04254356 5.00045254 -1.04080783 2.99958364 -1 1 C-0.67 0.67 -0.34 0.34 0 0 Z " fill="#EC1825" transform="translate(299,48)"/>
<path d="M0 0 C2.31 0 4.62 0 7 0 C7 2.64 7 5.28 7 8 C6.01 8 5.02 8 4 8 C2.68 5.36 1.36 2.72 0 0 Z " fill="#AD171D" transform="translate(33,280)"/>
<path d="M0 0 C0.74958984 0.00451172 1.49917969 0.00902344 2.27148438 0.01367188 C4.11852383 0.02543646 5.96552213 0.04337135 7.8125 0.0625 C7.8125 0.7225 7.8125 1.3825 7.8125 2.0625 C7.0390625 2.03929688 6.265625 2.01609375 5.46875 1.9921875 C-0.82075438 1.88321094 -6.17090199 2.21123907 -12.1875 4.0625 C-11.8575 3.0725 -11.5275 2.0825 -11.1875 1.0625 C-7.42449626 -0.19183458 -3.91539091 -0.04445422 0 0 Z " fill="#FDE0E1" transform="translate(180.1875,86.9375)"/>
<path d="M0 0 C0 3.59857954 -0.95830515 5.09451118 -3 8 C-3.66 8 -4.32 8 -5 8 C-5.66 9.65 -6.32 11.3 -7 13 C-7.66 12.01 -8.32 11.02 -9 10 C-7.87970983 8.51726301 -6.75361382 7.03891114 -5.625 5.5625 C-4.99851562 4.73878906 -4.37203125 3.91507812 -3.7265625 3.06640625 C-2 1 -2 1 0 0 Z " fill="#8F1413" transform="translate(42,66)"/>
<path d="M0 0 C5.96564796 0.50771472 10.63809899 2.38592128 16 5 C16 5.66 16 6.32 16 7 C10.3856009 5.43551329 5.13189662 3.83604813 0 1 C0 0.67 0 0.34 0 0 Z " fill="#A30D18" transform="translate(104,343)"/>
<path d="M0 0 C0 0.66 0 1.32 0 2 C0.66 2 1.32 2 2 2 C2.33 3.98 2.66 5.96 3 8 C-0.36591866 6.55746343 -2.51047079 4.66735273 -5 2 C-2 0 -2 0 0 0 Z " fill="#BB181F" transform="translate(68,312)"/>
<path d="M0 0 C0.33 0 0.66 0 1 0 C1.33846504 5.58467324 0.10190545 10.34714182 -3 15 C-4.51403812 10.15507803 -3.36602172 6.7408989 -2 2 C-1.34 2 -0.68 2 0 2 C0 1.34 0 0.68 0 0 Z " fill="#870D0E" transform="translate(7,134)"/>
<path d="M0 0 C0.66 0 1.32 0 2 0 C-0.66666667 5.33333333 -3.33333333 10.66666667 -6 16 C-6.6796875 14.35546875 -6.6796875 14.35546875 -7 12 C-5.8203125 9.23828125 -5.8203125 9.23828125 -4.125 6.3125 C-3.57070312 5.33925781 -3.01640625 4.36601563 -2.4453125 3.36328125 C-1 1 -1 1 0 0 Z " fill="#A41C21" transform="translate(118,120)"/>
<path d="M0 0 C0.66 0.33 1.32 0.66 2 1 C2 1.66 2 2.32 2 3 C1.01 3.33 0.02 3.66 -1 4 C-1.33 5.65 -1.66 7.3 -2 9 C-3.65 9.33 -5.3 9.66 -7 10 C-5.6561086 3.52488688 -5.6561086 3.52488688 -2.5 1 C-1.675 0.67 -0.85 0.34 0 0 Z " fill="#BD161D" transform="translate(74,37)"/>
<path d="M0 0 C0.99 0 1.98 0 3 0 C3 3.3 3 6.6 3 10 C2.34 10 1.68 10 1 10 C0.67 10.66 0.34 11.32 0 12 C0 8.04 0 4.08 0 0 Z " fill="#E53C49" transform="translate(356,204)"/>
<path d="M0 0 C2.00720923 0.28674418 4.0085944 0.61866701 6 1 C6 1.66 6 2.32 6 3 C1.03926578 4.32286246 -3.91111512 4.08893197 -9 4 C-9 3.67 -9 3.34 -9 3 C-8.43410156 2.86722656 -7.86820313 2.73445313 -7.28515625 2.59765625 C-6.18494141 2.33275391 -6.18494141 2.33275391 -5.0625 2.0625 C-4.33160156 1.88847656 -3.60070312 1.71445312 -2.84765625 1.53515625 C-1.00030102 1.16112431 -1.00030102 1.16112431 0 0 Z " fill="#DF5D69" transform="translate(213,355)"/>
<path d="M0 0 C3.35281942 3.08812315 5.82230601 5.52476282 7 10 C6.67 10.99 6.34 11.98 6 13 C4.80008401 11.4050992 3.61538682 9.79873853 2.4375 8.1875 C1.44556641 6.84751953 1.44556641 6.84751953 0.43359375 5.48046875 C-0.03949219 4.66191406 -0.51257813 3.84335938 -1 3 C-0.67 2.01 -0.34 1.02 0 0 Z " fill="#BF2529" transform="translate(239,116)"/>
<path d="M0 0 C0.66 0.99 1.32 1.98 2 3 C0.45511391 7.72048528 -1.18361884 10.71001624 -5 14 C-3.45730076 9.27934033 -1.92205381 4.58335908 0 0 Z " fill="#9F1A1E" transform="translate(14,116)"/>
<path d="M0 0 C0.33 0.66 0.66 1.32 1 2 C3.52733235 2.65555119 3.52733235 2.65555119 6 3 C4.68 3.33 3.36 3.66 2 4 C2 4.66 2 5.32 2 6 C1.34 6 0.68 6 0 6 C0 5.34 0 4.68 0 4 C-1.98 4 -3.96 4 -6 4 C-6 3.34 -6 2.68 -6 2 C-2.25 0 -2.25 0 0 0 Z " fill="#B21A25" transform="translate(102,18)"/>
<path d="M0 0 C0.66 0.33 1.32 0.66 2 1 C1.505 1.928125 1.01 2.85625 0.5 3.8125 C-1.21289852 6.86527516 -1.21289852 6.86527516 -1 10 C-1.99 10.495 -1.99 10.495 -3 11 C-3 10.34 -3 9.68 -3 9 C-3.66 9 -4.32 9 -5 9 C-4.625 7.0625 -4.625 7.0625 -4 5 C-3.34 4.67 -2.68 4.34 -2 4 C-0.86649466 1.98330173 -0.86649466 1.98330173 0 0 Z " fill="#EB1E24" transform="translate(321,285)"/>
<path d="M0 0 C0.33 0.66 0.66 1.32 1 2 C3.02463255 2.65213292 3.02463255 2.65213292 5 3 C5 3.99 5 4.98 5 6 C4.401875 6.144375 3.80375 6.28875 3.1875 6.4375 C1.43849596 6.8872439 -0.28677023 7.42892341 -2 8 C-1.34 5.36 -0.68 2.72 0 0 Z " fill="#F5E4E0" transform="translate(128,266)"/>
<path d="M0 0 C0.33 0 0.66 0 1 0 C1.36205464 1.95689037 1.71441421 3.91557668 2.0625 5.875 C2.25972656 6.96554688 2.45695312 8.05609375 2.66015625 9.1796875 C3 12 3 12 2 14 C-0.65673037 9.46141895 -1.41199125 6.2528884 -1 1 C-0.67 0.67 -0.34 0.34 0 0 Z " fill="#E9191E" transform="translate(261,219)"/>
<path d="M0 0 C1.03115279 3.26913624 0.9638984 5.86041348 0.5625 9.25 C0.46066406 10.14203125 0.35882813 11.0340625 0.25390625 11.953125 C0.12822266 12.96632812 0.12822266 12.96632812 0 14 C-0.99 14 -1.98 14 -3 14 C-2.48594831 9.03083364 -1.76615118 4.70973649 0 0 Z " fill="#F6CFCD" transform="translate(111,136)"/>
<path d="M0 0 C3 3.75 3 3.75 3 6 C2.01 6.495 2.01 6.495 1 7 C1 8.65 1 10.3 1 12 C0.34 12 -0.32 12 -1 12 C-1.92470553 7.28400182 -2.22923777 4.32734391 0 0 Z " fill="#EE1922" transform="translate(339,100)"/>
<path d="M0 0 C1.72945653 0.14235457 3.45855654 0.28904382 5.1875 0.4375 C6.63189453 0.55931641 6.63189453 0.55931641 8.10546875 0.68359375 C10.78649602 0.97666151 13.3662986 1.42703754 16 2 C16 2.66 16 3.32 16 4 C10.72 3.34 5.44 2.68 0 2 C0 1.34 0 0.68 0 0 Z " fill="#BF1720" transform="translate(194,1)"/>
<path d="M0 0 C2.31 0 4.62 0 7 0 C7.66 1.32 8.32 2.64 9 4 C8.01 4.33 7.02 4.66 6 5 C6 4.34 6 3.68 6 3 C3.69 3 1.38 3 -1 3 C-0.67 2.01 -0.34 1.02 0 0 Z " fill="#BC1A1E" transform="translate(81,328)"/>
<path d="M0 0 C0.66 0 1.32 0 2 0 C3.65 3.63 5.3 7.26 7 11 C3 10 3 10 1.25 7.1875 C0 4 0 4 0 0 Z " fill="#AB2E30" transform="translate(111,266)"/>
<path d="M0 0 C0.99 0 1.98 0 3 0 C3.07347656 1.17369141 3.07347656 1.17369141 3.1484375 2.37109375 C3.22320312 3.38300781 3.29796875 4.39492188 3.375 5.4375 C3.44460937 6.44683594 3.51421875 7.45617187 3.5859375 8.49609375 C3.72257812 9.32238281 3.85921875 10.14867187 4 11 C4.66 11.33 5.32 11.66 6 12 C5.01 12 4.02 12 3 12 C2.01 8.04 1.02 4.08 0 0 Z " fill="#F9F0E6" transform="translate(113,263)"/>
<path d="M0 0 C2.74792483 3.40219265 6 7.48464588 6 12 C3 11 3 11 1.3125 8.25 C0.06049331 5.14979295 -0.28970125 3.28328088 0 0 Z " fill="#861219" transform="translate(17,253)"/>
<path d="M0 0 C2.0625 0.4375 2.0625 0.4375 4 1 C2.40377344 2.03320481 0.79770894 3.05122429 -0.8125 4.0625 C-2.15248047 4.91521484 -2.15248047 4.91521484 -3.51953125 5.78515625 C-6 7 -6 7 -9 6 C-8.34 6 -7.68 6 -7 6 C-7 5.34 -7 4.68 -7 4 C-5.5459375 3.2884375 -5.5459375 3.2884375 -4.0625 2.5625 C-1.19522563 1.29806053 -1.19522563 1.29806053 0 0 Z " fill="#C81425" transform="translate(276,330)"/>
<path d="M0 0 C1.051875 0.433125 1.051875 0.433125 2.125 0.875 C5.05452503 2.02133588 8.00921653 3.02625654 11 4 C8.64561267 5.42944945 7.51967567 6.08661261 4.75 5.625 C4.1725 5.41875 3.595 5.2125 3 5 C3 4.34 3 3.68 3 3 C2.01 2.67 1.02 2.34 0 2 C0 1.34 0 0.68 0 0 Z " fill="#FCECE4" transform="translate(208,97)"/>
<path d="M0 0 C5.875 3.625 5.875 3.625 7 7 C4.03 6.505 4.03 6.505 1 6 C0.67 4.02 0.34 2.04 0 0 Z " fill="#EF1E28" transform="translate(280,33)"/>
<path d="M0 0 C0.99 0 1.98 0 3 0 C4.75 1.75 4.75 1.75 6 4 C5.6875 6.25 5.6875 6.25 5 8 C2.5 5.6875 2.5 5.6875 0 3 C0 2.01 0 1.02 0 0 Z " fill="#A3161F" transform="translate(57,309)"/>
<path d="M0 0 C0.99 0 1.98 0 3 0 C3.1875 3.375 3.1875 3.375 3 7 C2.01 7.66 1.02 8.32 0 9 C0 6.03 0 3.06 0 0 Z " fill="#E61318" transform="translate(346,238)"/>
<path d="M0 0 C1.98 0 3.96 0 6 0 C2.25474201 3.74525799 -1.98270909 3.68909949 -7 4 C-5 2 -5 2 -2.375 1.875 C-1.59125 1.91625 -0.8075 1.9575 0 2 C0 1.34 0 0.68 0 0 Z " fill="#C0141F" transform="translate(244,346)"/>
<path d="M0 0 C2.475 0.99 2.475 0.99 5 2 C3 5 3 5 0.375 5.6875 C-0.800625 5.8421875 -0.800625 5.8421875 -2 6 C-1.34 4.02 -0.68 2.04 0 0 Z " fill="#E71920" transform="translate(271,328)"/>
<path d="M0 0 C1.65 0 3.3 0 5 0 C5 1.98 5 3.96 5 6 C2.5 4.6875 2.5 4.6875 0 3 C0 2.01 0 1.02 0 0 Z " fill="#B81B22" transform="translate(75,321)"/>
<path d="M0 0 C5.94 1.485 5.94 1.485 12 3 C11.34 3.66 10.68 4.32 10 5 C7.6171875 4.7578125 7.6171875 4.7578125 4.875 4.125 C3.96492188 3.92132813 3.05484375 3.71765625 2.1171875 3.5078125 C1.41851562 3.34023438 0.71984375 3.17265625 0 3 C0 2.01 0 1.02 0 0 Z " fill="#AC1B26" transform="translate(124,283)"/>
<path d="M0 0 C2.46800047 1.15173355 4.04783565 2.04783565 6 4 C8.06874034 4.6425235 8.06874034 4.6425235 10 5 C10 5.66 10 6.32 10 7 C6.6936092 6.44893487 3.80017874 5.90012129 1 4 C0.25 1.875 0.25 1.875 0 0 Z " fill="#AA2830" transform="translate(128,264)"/>
<path d="M0 0 C0.66 0 1.32 0 2 0 C2 0.66 2 1.32 2 2 C2.556875 2.226875 3.11375 2.45375 3.6875 2.6875 C6.63246684 4.35896766 8.68156544 6.55276352 11 9 C7.25983417 9 6.54723807 8.0658409 3.8125 5.625 C3.09707031 4.99851562 2.38164062 4.37203125 1.64453125 3.7265625 C0 2 0 2 0 0 Z " fill="#BD2C2E" transform="translate(225,104)"/>
<path d="M0 0 C0.66 0.33 1.32 0.66 2 1 C-2.30769231 5.92307692 -2.30769231 5.92307692 -5.8125 6.3125 C-6.8953125 6.1578125 -6.8953125 6.1578125 -8 6 C-5.54080489 3.3651481 -3.42227589 1.25483449 0 0 Z " fill="#F7D1D5" transform="translate(142,101)"/>
<path d="M0 0 C3.08089673 2.77280706 4.68775452 5.06326356 6 9 C5.01 9 4.02 9 3 9 C3 8.34 3 7.68 3 7 C2.34 7 1.68 7 1 7 C0.67 4.69 0.34 2.38 0 0 Z " fill="#CF212F" transform="translate(328,78)"/>
<path d="M0 0 C1.32 0.33 2.64 0.66 4 1 C3.67 2.65 3.34 4.3 3 6 C1.35 6 -0.3 6 -2 6 C-1.34 4.02 -0.68 2.04 0 0 Z " fill="#BE151A" transform="translate(104,337)"/>
<path d="M0 0 C0.66 0 1.32 0 2 0 C1.91253716 1.43861294 1.80434652 2.87597508 1.6875 4.3125 C1.62949219 5.11300781 1.57148437 5.91351563 1.51171875 6.73828125 C0.91793306 9.36272334 0.04219706 10.30820672 -2 12 C-1 3.42857143 -1 3.42857143 0 0 Z " fill="#F6D1CD" transform="translate(104,216)"/>
<path d="M0 0 C4.455 0.99 4.455 0.99 9 2 C9 2.66 9 3.32 9 4 C6 5 6 5 3.9375 4.125 C3.298125 3.75375 2.65875 3.3825 2 3 C1.34 2.67 0.68 2.34 0 2 C0 1.34 0 0.68 0 0 Z " fill="#D6565D" transform="translate(226,5)"/>
<path d="M0 0 C-1.1875 1.5 -1.1875 1.5 -3 3 C-5.6875 3.1875 -5.6875 3.1875 -8 3 C-7.67 2.01 -7.34 1.02 -7 0 C-3.86650268 -1.04449911 -3.01031744 -0.93423645 0 0 Z " fill="#C11721" transform="translate(87,244)"/>
<path d="M0 0 C3.33537489 1.11179163 4.63707344 2.47411298 7 5 C6.01 6.485 6.01 6.485 5 8 C4.34 8 3.68 8 3 8 C3 7.01 3 6.02 3 5 C2.0206121 3.97980427 1.02104551 2.97850195 0 2 C0 1.34 0 0.68 0 0 Z " fill="#BD1B23" transform="translate(88,233)"/>
<path d="M0 0 C0.66 0 1.32 0 2 0 C3.6875 2.375 3.6875 2.375 5 5 C4.67 5.66 4.34 6.32 4 7 C3.01 7 2.02 7 1 7 C0.67 4.69 0.34 2.38 0 0 Z " fill="#EC1D25" transform="translate(250,133)"/>
<path d="M0 0 C2.64 1.98 5.28 3.96 8 6 C6.68 6.33 5.36 6.66 4 7 C4 6.34 4 5.68 4 5 C2.68 4.34 1.36 3.68 0 3 C0 2.01 0 1.02 0 0 Z " fill="#FBDBD6" transform="translate(224,105)"/>
<path d="M0 0 C1 3 1 3 0.4375 5.125 C-1 7 -1 7 -4.125 7.75 C-5.548125 7.87375 -5.548125 7.87375 -7 8 C-5.625 6.5 -5.625 6.5 -4 5 C-3.34 5 -2.68 5 -2 5 C-1.34 3.35 -0.68 1.7 0 0 Z " fill="#AA1624" transform="translate(153,90)"/>
<path d="M0 0 C4.28904235 1.5885342 6.32345526 4.43127368 9 8 C9 8.66 9 9.32 9 10 C4.9688217 8.6562739 4.19869403 6.54628069 2 3 C1.34 2.01 0.68 1.02 0 0 Z " fill="#B1181F" transform="translate(198,79)"/>
<path d="M0 0 C1.36125 0.12375 1.36125 0.12375 2.75 0.25 C2.09 0.91 1.43 1.57 0.75 2.25 C-0.24 2.25 -1.23 2.25 -2.25 2.25 C-2.25 2.91 -2.25 3.57 -2.25 4.25 C-3.9 4.25 -5.55 4.25 -7.25 4.25 C-4.83923194 1.28290085 -3.90322061 0.30024774 0 0 Z " fill="#EC1A21" transform="translate(246.25,343.75)"/>
<path d="M0 0 C0.33 0.66 0.66 1.32 1 2 C-0.125 4.5625 -0.125 4.5625 -2 7 C-4.6875 7.8125 -4.6875 7.8125 -7 8 C-6.67 7.34 -6.34 6.68 -6 6 C-5.34 6 -4.68 6 -4 6 C-3.71125 5.38125 -3.4225 4.7625 -3.125 4.125 C-2 2 -2 2 0 0 Z " fill="#B33235" transform="translate(163,274)"/>
<path d="M0 0 C0.33 0 0.66 0 1 0 C3 6.625 3 6.625 3 10 C2.01 9.67 1.02 9.34 0 9 C-1.125 3.375 -1.125 3.375 0 0 Z " fill="#9D2326" transform="translate(76,254)"/>
<path d="M0 0 C0.66 1.32 1.32 2.64 2 4 C1.01 4.33 0.02 4.66 -1 5 C-1.33 5.99 -1.66 6.98 -2 8 C-2.66 8 -3.32 8 -4 8 C-3.40138258 5.64828869 -2.73075648 3.3140622 -2 1 C-1.34 0.67 -0.68 0.34 0 0 Z " fill="#950F0F" transform="translate(29,84)"/>
<path d="M0 0 C2.31 0.33 4.62 0.66 7 1 C7 1.99 7 2.98 7 4 C4.69 3.67 2.38 3.34 0 3 C0 2.01 0 1.02 0 0 Z " fill="#DB151F" transform="translate(272,28)"/>
<path d="M0 0 C4.875 4.625 4.875 4.625 6 8 C5.01 8.495 5.01 8.495 4 9 C0 3.375 0 3.375 0 0 Z " fill="#8F0F13" transform="translate(39,289)"/>
<path d="M0 0 C0.6875 1.75 0.6875 1.75 1 4 C-0.4375 6.25 -0.4375 6.25 -2 8 C-2.66 7.34 -3.32 6.68 -4 6 C-2.25 1.125 -2.25 1.125 0 0 Z " fill="#F51825" transform="translate(338,258)"/>
<path d="M0 0 C0 0.99 0 1.98 0 3 C-2.70879335 4.35439668 -5.00933268 4.06501451 -8 4 C-5.57415142 1.34311822 -3.76063134 0 0 0 Z " fill="#FBEEED" transform="translate(282,259)"/>
<path d="M0 0 C0.33 0 0.66 0 1 0 C1.25 6.625 1.25 6.625 -1 10 C-1.66 10 -2.32 10 -3 10 C-2.01 6.7 -1.02 3.4 0 0 Z " fill="#871823" transform="translate(12,114)"/>
<path d="M0 0 C8.57142857 -0.28571429 8.57142857 -0.28571429 12 2 C4.61538462 3.35384615 4.61538462 3.35384615 1.5 1.5625 C1.005 1.046875 0.51 0.53125 0 0 Z " fill="#C2202A" transform="translate(176,88)"/>
<path d="M0 0 C2.46800047 1.15173355 4.04783565 2.04783565 6 4 C5.625 6.125 5.625 6.125 5 8 C0 2.25 0 2.25 0 0 Z " fill="#D20F18" transform="translate(315,63)"/>
<path d="M0 0 C0.66 0.66 1.32 1.32 2 2 C-1.625 5 -1.625 5 -5 5 C-5 5.66 -5 6.32 -5 7 C-5.66 6.67 -6.32 6.34 -7 6 C-2.25 1.125 -2.25 1.125 0 0 Z " fill="#9C0D10" transform="translate(85,27)"/>
<path d="M0 0 C0.99 0.33 1.98 0.66 3 1 C2.25 2.9375 2.25 2.9375 1 5 C-1.125 5.75 -1.125 5.75 -3 6 C-1.125 1.125 -1.125 1.125 0 0 Z " fill="#EB161F" transform="translate(291,316)"/>
<path d="M0 0 C0.268125 0.639375 0.53625 1.27875 0.8125 1.9375 C1.88667752 4.33131686 1.88667752 4.33131686 5 5 C4.01 5 3.02 5 2 5 C2 6.65 2 8.3 2 10 C-0.4294516 6.3558226 -0.16179575 4.28758728 0 0 Z " fill="#930E15" transform="translate(14,244)"/>
<path d="M0 0 C0.66 0.33 1.32 0.66 2 1 C0.02 3.31 -1.96 5.62 -4 8 C-4.66 7.34 -5.32 6.68 -6 6 C-5.34 6 -4.68 6 -4 6 C-4 5.34 -4 4.68 -4 4 C-3.34 4 -2.68 4 -2 4 C-1.34 2.68 -0.68 1.36 0 0 Z " fill="#9F232C" transform="translate(95,237)"/>
<path d="M0 0 C2.50037734 2.17424117 3.43628586 3.73045798 4 7 C2.68 7.33 1.36 7.66 0 8 C0 5.36 0 2.72 0 0 Z " fill="#F4C9C6" transform="translate(244,128)"/>
<path d="M0 0 C1.24546405 2.49092811 0.7767578 3.41080733 0 6 C-0.99 6 -1.98 6 -3 6 C-3 6.99 -3 7.98 -3 9 C-3.66 9 -4.32 9 -5 9 C-3.7508258 5.54074837 -2.32472205 2.85306797 0 0 Z " fill="#F7CAC9" transform="translate(121,119)"/>
<path d="M0 0 C-2.71182212 2.60334924 -3.89133813 2.99456691 -7.75 3.1875 C-8.8225 3.125625 -9.895 3.06375 -11 3 C-7.11595442 0.41063628 -4.5725325 -0.12358196 0 0 Z " fill="#BB1017" transform="translate(160,2)"/>
<path d="M0 0 C0.99 0 1.98 0 3 0 C3 0.99 3 1.98 3 3 C0.29120665 4.35439668 -2.00933268 4.06501451 -5 4 C-2 2 -2 2 0 2 C0 1.34 0 0.68 0 0 Z " fill="#D5111A" transform="translate(280,326)"/>
<path d="M0 0 C2.76223278 2.76223278 2.57856291 5.20706617 3 9 C2.01 8.34 1.02 7.68 0 7 C-0.1875 3.375 -0.1875 3.375 0 0 Z " fill="#FBC7CC" transform="translate(248,136)"/>
<path d="M0 0 C0.33 0 0.66 0 1 0 C1 2.31 1 4.62 1 7 C-0.32 7.33 -1.64 7.66 -3 8 C-1.125 2.25 -1.125 2.25 0 0 Z " fill="#F6CFCB" transform="translate(115,128)"/>
<path d="M0 0 C1.875 0.3125 1.875 0.3125 4 1 C4.66 1.99 5.32 2.98 6 4 C4.68 4.33 3.36 4.66 2 5 C1.34 3.35 0.68 1.7 0 0 Z " fill="#D81323" transform="translate(305,53)"/>
<path d="M0 0 C0.66 0.33 1.32 0.66 2 1 C1.34 2.32 0.68 3.64 0 5 C-1.65 5 -3.3 5 -5 5 C-3.35 3.35 -1.7 1.7 0 0 Z " fill="#9A181F" transform="translate(77,32)"/>
<path d="M0 0 C6.625 -0.25 6.625 -0.25 10 2 C5.94568308 3.15837626 3.78187881 2.83691257 0 1 C0 0.67 0 0.34 0 0 Z " fill="#E61C25" transform="translate(208,5)"/>
</svg>
